<?xml version="1.0" encoding="UTF-8" standalone="no"?>
<svg
   version="1.1"
   width="64"
   height="64"
   id="svg6333"
   xmlns:xlink="http://www.w3.org/1999/xlink"
   xmlns="http://www.w3.org/2000/svg"
   xmlns:svg="http://www.w3.org/2000/svg"
   xmlns:rdf="http://www.w3.org/1999/02/22-rdf-syntax-ns#"
   xmlns:cc="http://creativecommons.org/ns#"
   xmlns:dc="http://purl.org/dc/elements/1.1/">
  <defs
     id="defs6335">
    <linearGradient
       id="linearGradient5392">
      <stop
         offset="0"
         style="stop-color:#fafafa;stop-opacity:1"
         id="stop5388" />
      <stop
         offset="1"
         style="stop-color:#d4d4d4;stop-opacity:1"
         id="stop5390" />
    </linearGradient>
    <linearGradient
       id="linearGradient2116">
      <stop
         offset="0"
         style="stop-color:#4d4d4d;stop-opacity:1"
         id="stop2112" />
      <stop
         offset="1"
         style="stop-color:#333333;stop-opacity:1"
         id="stop2114" />
    </linearGradient>
    <linearGradient
       x1="23.99999"
       y1="4.999989"
       x2="23.99999"
       y2="43"
       id="linearGradient3381-5-4"
       xlink:href="#linearGradient3924-2-2-5-8"
       gradientUnits="userSpaceOnUse"
       gradientTransform="matrix(1.4324324,0,0,1.3243243,-2.378381,2.2162199)" />
    <linearGradient
       id="linearGradient3924-2-2-5-8">
      <stop
         id="stop3926-9-4-9-6"
         style="stop-color:#ffffff;stop-opacity:1"
         offset="0" />
      <stop
         id="stop3928-9-8-6-5"
         style="stop-color:#ffffff;stop-opacity:0.23529412"
         offset="0.06316455" />
      <stop
         id="stop3930-3-5-1-7"
         style="stop-color:#ffffff;stop-opacity:0.15686275"
         offset="0.95056331" />
      <stop
         id="stop3932-8-0-4-8"
         style="stop-color:#ffffff;stop-opacity:0.39215687"
         offset="1" />
    </linearGradient>
    <radialGradient
       cx="4.9929786"
       cy="43.5"
       r="2.5"
       fx="4.9929786"
       fy="43.5"
       id="radialGradient3337-2-2"
       xlink:href="#linearGradient3688-166-749-4-0-3-8"
       gradientUnits="userSpaceOnUse"
       gradientTransform="matrix(2.4045407,0,0,0.99999998,41.985755,15.500001)" />
    <linearGradient
       id="linearGradient3688-166-749-4-0-3-8">
      <stop
         id="stop2883-4-0-1-8"
         style="stop-color:#181818;stop-opacity:1"
         offset="0" />
      <stop
         id="stop2885-9-2-9-6"
         style="stop-color:#181818;stop-opacity:0"
         offset="1" />
    </linearGradient>
    <radialGradient
       cx="4.9929786"
       cy="43.5"
       r="2.5"
       fx="4.9929786"
       fy="43.5"
       id="radialGradient3339-1-4"
       xlink:href="#linearGradient3688-464-309-9-2-4-2"
       gradientUnits="userSpaceOnUse"
       gradientTransform="matrix(2.4045407,0,0,0.99999998,-22.014244,-102.5)" />
    <linearGradient
       id="linearGradient3688-464-309-9-2-4-2">
      <stop
         id="stop2889-7-9-6-9"
         style="stop-color:#181818;stop-opacity:1"
         offset="0" />
      <stop
         id="stop2891-6-6-1-7"
         style="stop-color:#181818;stop-opacity:0"
         offset="1" />
    </linearGradient>
    <linearGradient
       id="linearGradient3702-501-757-8-4-1-1">
      <stop
         id="stop2895-8-9-9-1"
         style="stop-color:#181818;stop-opacity:0"
         offset="0" />
      <stop
         id="stop2897-7-8-7-7"
         style="stop-color:#181818;stop-opacity:1"
         offset="0.5" />
      <stop
         id="stop2899-4-5-1-5"
         style="stop-color:#181818;stop-opacity:0"
         offset="1" />
    </linearGradient>
    <linearGradient
       x1="25.058096"
       y1="47.027729"
       x2="25.058096"
       y2="39.999443"
       id="linearGradient6394"
       xlink:href="#linearGradient3702-501-757-8-4-1-1"
       gradientUnits="userSpaceOnUse"
       gradientTransform="matrix(1.5714286,0,0,0.7142857,-5.7142853,27.928572)" />
    <linearGradient
       xlink:href="#linearGradient5392"
       id="linearGradient980"
       x1="33.474228"
       y1="5.1333203"
       x2="33.474228"
       y2="10.033297"
       gradientUnits="userSpaceOnUse"
       gradientTransform="translate(-0.999999)" />
    <linearGradient
       id="linearGradient986">
      <stop
         offset="0"
         style="stop-color:#43d6b5;stop-opacity:1"
         id="stop982" />
      <stop
         offset="1"
         style="stop-color:#28bca3;stop-opacity:1"
         id="stop984" />
    </linearGradient>
    <linearGradient
       xlink:href="#linearGradient986"
       id="linearGradient5382"
       gradientUnits="userSpaceOnUse"
       gradientTransform="matrix(0.99965382,0,0,0.92692651,-0.98857358,4.3383496)"
       x1="33.474228"
       y1="5.1333203"
       x2="33.474228"
       y2="58.81398" />
    <linearGradient
       xlink:href="#linearGradient2116"
       id="linearGradient5384"
       gradientUnits="userSpaceOnUse"
       gradientTransform="translate(-0.999999)"
       x1="33.474228"
       y1="5.1333203"
       x2="33.474228"
       y2="58.81398" />
  </defs>
  <metadata
     id="metadata6338">
    <rdf:RDF>
      <cc:Work
         rdf:about="">
        <dc:format>image/svg+xml</dc:format>
        <dc:type
           rdf:resource="http://purl.org/dc/dcmitype/StillImage" />
      </cc:Work>
    </rdf:RDF>
  </metadata>
  <rect
     style="opacity:0.6;fill:url(#radialGradient3337-2-2);fill-opacity:1;stroke:none;stroke-width:1.06199"
     id="rect2801-5-5-7-9"
     y="56.5"
     x="54"
     height="5"
     width="6" />
  <rect
     style="opacity:0.6;fill:url(#radialGradient3339-1-4);fill-opacity:1;stroke:none;stroke-width:1.06199"
     id="rect3696-3-0-3-7"
     transform="scale(-1)"
     y="-61.5"
     x="-10"
     height="5"
     width="6" />
  <rect
     style="opacity:0.6;fill:url(#linearGradient6394);fill-opacity:1;stroke:none;stroke-width:1.06199"
     id="rect3700-5-6-8-4"
     y="56.5"
     x="10"
     height="5.0000005"
     width="44" />
  <path
     id="rect5505-21-1-5"
     style="color:#000000;font-variation-settings:normal;display:inline;overflow:visible;visibility:visible;opacity:1;fill:url(#linearGradient980);fill-opacity:1;fill-rule:nonzero;stroke:#007367;stroke-width:1.01904;stroke-linecap:butt;stroke-linejoin:round;stroke-miterlimit:0;stroke-dasharray:none;stroke-dashoffset:0;stroke-opacity:0.5;marker:none;enable-background:accumulate;stop-color:#000000;stop-opacity:1"
     d="M 12,13.8125 H 59.5 V 10.5 c 0,-3.3239967 -2.676003,-6 -6,-6 H 12" />
  <path
     id="rect5505-21-1-5-6"
     style="color:#000000;font-variation-settings:normal;display:inline;overflow:visible;visibility:visible;opacity:1;vector-effect:none;fill:url(#linearGradient980);fill-opacity:1;fill-rule:nonzero;stroke:#000000;stroke-width:1.01904;stroke-linecap:butt;stroke-linejoin:round;stroke-miterlimit:0;stroke-dasharray:none;stroke-dashoffset:0;stroke-opacity:0.5;-inkscape-stroke:none;marker:none;enable-background:accumulate;stop-color:#000000;stop-opacity:1"
     d="m 12,4.5 h -1.5 c -3.3239967,0 -6,2.6760033 -6,6 v 3 H 12" />
  <path
     id="rect5505-21-1-5-1"
     style="color:#000000;font-variation-settings:normal;display:inline;overflow:visible;visibility:visible;fill:url(#linearGradient5382);fill-opacity:1;fill-rule:nonzero;stroke:#007367;stroke-width:1.01904;stroke-linecap:butt;stroke-linejoin:round;stroke-miterlimit:0;stroke-dasharray:none;stroke-dashoffset:0;stroke-opacity:0.5;marker:none;enable-background:accumulate;stop-color:#000000"
     d="m 11.490234,59.490234 h 42 c 3.323997,0 6,-2.676003 6,-6 V 14.509766 c 0,-3.323997 -2.676003,-6.0000004 -6,-6.0000004 h -42" />
  <path
     id="rect5505-21-1-5-6-8"
     style="color:#000000;font-variation-settings:normal;display:inline;overflow:visible;visibility:visible;fill:url(#linearGradient5384);fill-opacity:1;fill-rule:nonzero;stroke:#1a1a1a;stroke-width:1.01904;stroke-linecap:butt;stroke-linejoin:miter;stroke-miterlimit:0;stroke-dasharray:none;stroke-dashoffset:0;stroke-opacity:0.5;marker:none;enable-background:accumulate;stop-color:#000000"
     d="m 10.5,8.5 c -3.3239967,0 -6,2.676003 -6,6 v 39 c 0,3.323997 2.6760033,6 6,6 h 1 v -51 z" />
  <rect
     style="opacity:0.5;fill:none;stroke:url(#linearGradient3381-5-4);stroke-width:0.999997;stroke-linecap:round;stroke-linejoin:round;stroke-miterlimit:4;stroke-dasharray:none;stroke-dashoffset:0;stroke-opacity:1"
     id="rect6741-5-0-2-3"
     y="9.4999981"
     x="5.4999986"
     ry="5"
     height="49"
     width="53"
     rx="5" />
  <path
     style="color:#000000;font-style:normal;font-variant:normal;font-weight:normal;font-stretch:normal;font-size:medium;line-height:normal;font-family:sans-serif;font-variant-ligatures:normal;font-variant-position:normal;font-variant-caps:normal;font-variant-numeric:normal;font-variant-alternates:normal;font-variant-east-asian:normal;font-feature-settings:normal;font-variation-settings:normal;text-indent:0;text-align:start;text-decoration:none;text-decoration-line:none;text-decoration-style:solid;text-decoration-color:#000000;letter-spacing:normal;word-spacing:normal;text-transform:none;writing-mode:lr-tb;direction:ltr;text-orientation:mixed;dominant-baseline:auto;baseline-shift:baseline;text-anchor:start;white-space:normal;shape-padding:0;shape-margin:0;inline-size:0;clip-rule:nonzero;display:inline;overflow:visible;visibility:visible;opacity:0.15;isolation:auto;mix-blend-mode:normal;color-interpolation:sRGB;color-interpolation-filters:linearRGB;solid-color:#000000;solid-opacity:1;vector-effect:none;fill:#007367;fill-opacity:1;fill-rule:nonzero;stroke:#007367;stroke-width:2;stroke-linecap:round;stroke-linejoin:round;stroke-miterlimit:4;stroke-dasharray:none;stroke-dashoffset:0;stroke-opacity:1;marker:none;color-rendering:auto;image-rendering:auto;shape-rendering:auto;text-rendering:auto;enable-background:accumulate;stop-color:#000000"
     d="m 34.5,20.999997 c -4.688498,0 -8.5,3.8115 -8.5,8.500003 0,4.6885 3.811502,8.5 8.5,8.5 4.688498,0 8.5,-3.8115 8.5,-8.5 0,-4.688503 -3.811502,-8.500003 -8.5,-8.500003 z M 31.373047,39 c -3.60156,0 -6.723744,1.84661 -8.597656,4.71484 -0.0097,0.0128 -0.183498,0.24064 -0.367188,0.5625 C 22.219475,44.60803 22,45.01002 22,45.5 v 2 c 0,1.37635 1.123649,2.5 2.5,2.5 h 10 10 c 1.376351,0 2.5,-1.12365 2.5,-2.5 v -1.99219 c 0.0073,-0.4746 -0.190959,-0.86792 -0.363281,-1.1875 -0.164949,-0.3059 -0.318015,-0.51585 -0.332031,-0.53515 l -0.0039,-0.006 C 44.424802,40.87241 41.255877,39 37.626953,39 Z"
     id="path974" />
  <path
     style="color:#000000;font-style:normal;font-variant:normal;font-weight:normal;font-stretch:normal;font-size:medium;line-height:normal;font-family:sans-serif;font-variant-ligatures:normal;font-variant-position:normal;font-variant-caps:normal;font-variant-numeric:normal;font-variant-alternates:normal;font-variant-east-asian:normal;font-feature-settings:normal;font-variation-settings:normal;text-indent:0;text-align:start;text-decoration:none;text-decoration-line:none;text-decoration-style:solid;text-decoration-color:#000000;letter-spacing:normal;word-spacing:normal;text-transform:none;writing-mode:lr-tb;direction:ltr;text-orientation:mixed;dominant-baseline:auto;baseline-shift:baseline;text-anchor:start;white-space:normal;shape-padding:0;shape-margin:0;inline-size:0;clip-rule:nonzero;display:inline;overflow:visible;visibility:visible;opacity:0.3;isolation:auto;mix-blend-mode:normal;color-interpolation:sRGB;color-interpolation-filters:linearRGB;solid-color:#000000;solid-opacity:1;vector-effect:none;fill:#007367;fill-opacity:1;fill-rule:nonzero;stroke:none;stroke-width:1;stroke-linecap:round;stroke-linejoin:round;stroke-miterlimit:4;stroke-dasharray:none;stroke-dashoffset:0;stroke-opacity:1;marker:none;color-rendering:auto;image-rendering:auto;shape-rendering:auto;text-rendering:auto;enable-background:accumulate;stop-color:#000000"
     d="m 34.5,20.999997 c -4.688498,0 -8.5,3.8115 -8.5,8.500003 0,4.6885 3.811502,8.5 8.5,8.5 4.688498,0 8.5,-3.8115 8.5,-8.5 0,-4.688503 -3.811502,-8.500003 -8.5,-8.500003 z M 31.373047,39 c -3.60156,0 -6.723744,1.84661 -8.597656,4.71484 -0.0097,0.0128 -0.183498,0.24064 -0.367188,0.5625 C 22.219475,44.60803 22,45.01002 22,45.5 v 2 c 0,1.37635 1.123649,2.5 2.5,2.5 h 10 10 c 1.376351,0 2.5,-1.12365 2.5,-2.5 v -1.99219 c 0.0073,-0.4746 -0.190959,-0.86792 -0.363281,-1.1875 -0.164949,-0.3059 -0.318015,-0.51585 -0.332031,-0.53515 l -0.0039,-0.006 C 44.424802,40.87241 41.255877,39 37.626953,39 Z"
     id="path1674" />
  <path
     style="color:#000000;font-style:normal;font-variant:normal;font-weight:normal;font-stretch:normal;font-size:medium;line-height:normal;font-family:sans-serif;font-variant-ligatures:normal;font-variant-position:normal;font-variant-caps:normal;font-variant-numeric:normal;font-variant-alternates:normal;font-variant-east-asian:normal;font-feature-settings:normal;font-variation-settings:normal;text-indent:0;text-align:start;text-decoration:none;text-decoration-line:none;text-decoration-style:solid;text-decoration-color:#000000;letter-spacing:normal;word-spacing:normal;text-transform:none;writing-mode:lr-tb;direction:ltr;text-orientation:mixed;dominant-baseline:auto;baseline-shift:baseline;text-anchor:start;white-space:normal;shape-padding:0;shape-margin:0;inline-size:0;clip-rule:nonzero;display:inline;overflow:visible;visibility:visible;isolation:auto;mix-blend-mode:normal;color-interpolation:sRGB;color-interpolation-filters:linearRGB;solid-color:#000000;solid-opacity:1;vector-effect:none;fill:#fafafa;fill-opacity:1;fill-rule:nonzero;stroke:none;stroke-width:1;stroke-linecap:round;stroke-linejoin:round;stroke-miterlimit:4;stroke-dasharray:none;stroke-dashoffset:0;stroke-opacity:1;marker:none;color-rendering:auto;image-rendering:auto;shape-rendering:auto;text-rendering:auto;enable-background:accumulate;stop-color:#000000"
     d="M 34.5,20 C 29.811502,20 26,23.8115 26,28.5 26,33.188503 29.811502,37 34.5,37 39.188498,37 43,33.188503 43,28.5 43,23.8115 39.188498,20 34.5,20 Z m -3.126953,18 c -3.60156,0 -6.723744,1.846613 -8.597656,4.714844 -0.0097,0.01279 -0.183498,0.240636 -0.367188,0.5625 C 22.219475,43.608034 22,44.010021 22,44.5 v 2 c 0,1.376351 1.123649,2.5 2.5,2.5 h 10 10 c 1.376351,0 2.5,-1.123649 2.5,-2.5 v -1.992188 c 0.0073,-0.4746 -0.190959,-0.867922 -0.363281,-1.1875 -0.164949,-0.305901 -0.318015,-0.515852 -0.332031,-0.535156 l -0.0039,-0.0059 C 44.424802,39.87241 41.255877,38 37.626953,38 Z"
     id="path978" />
  <path
     id="path1674-3"
     style="color:#000000;font-style:normal;font-variant:normal;font-weight:normal;font-stretch:normal;font-size:medium;line-height:normal;font-family:sans-serif;font-variant-ligatures:normal;font-variant-position:normal;font-variant-caps:normal;font-variant-numeric:normal;font-variant-alternates:normal;font-variant-east-asian:normal;font-feature-settings:normal;font-variation-settings:normal;text-indent:0;text-align:start;text-decoration:none;text-decoration-line:none;text-decoration-style:solid;text-decoration-color:#000000;letter-spacing:normal;word-spacing:normal;text-transform:none;writing-mode:lr-tb;direction:ltr;text-orientation:mixed;dominant-baseline:auto;baseline-shift:baseline;text-anchor:start;white-space:normal;shape-padding:0;shape-margin:0;inline-size:0;clip-rule:nonzero;display:inline;overflow:visible;visibility:visible;opacity:0.15;isolation:auto;mix-blend-mode:normal;color-interpolation:sRGB;color-interpolation-filters:linearRGB;solid-color:#000000;solid-opacity:1;vector-effect:none;fill:#007367;fill-opacity:1;fill-rule:nonzero;stroke:none;stroke-width:1;stroke-linecap:round;stroke-linejoin:round;stroke-miterlimit:4;stroke-dasharray:none;stroke-dashoffset:0;stroke-opacity:1;marker:none;color-rendering:auto;image-rendering:auto;shape-rendering:auto;text-rendering:auto;enable-background:accumulate;stop-color:#000000"
     d="m 26.015624,28 c -0.0096,0.165421 -0.01563,0.332197 -0.01563,0.5 0,4.688495 3.811507,8.5 8.5,8.5 4.688493,0 8.5,-3.811505 8.5,-8.5 0,-0.167803 -0.006,-0.334579 -0.01563,-0.5 -0.25944,4.456539 -3.963684,8 -8.484375,8 -4.520691,0 -8.224935,-3.543461 -8.484375,-8 z m -4.015625,17.5 v 1 c 0,1.376349 1.12365,2.5 2.5,2.5 h 10 10 c 1.37635,0 2.5,-1.123651 2.5,-2.5 v -1 c 0,1.376349 -1.12365,2.5 -2.5,2.5 h -10 -10 c -1.37635,0 -2.5,-1.123651 -2.5,-2.5 z" />
  <path
     id="path978-7"
     style="color:#000000;font-style:normal;font-variant:normal;font-weight:normal;font-stretch:normal;font-size:medium;line-height:normal;font-family:sans-serif;font-variant-ligatures:normal;font-variant-position:normal;font-variant-caps:normal;font-variant-numeric:normal;font-variant-alternates:normal;font-variant-east-asian:normal;font-feature-settings:normal;font-variation-settings:normal;text-indent:0;text-align:start;text-decoration:none;text-decoration-line:none;text-decoration-style:solid;text-decoration-color:#000000;letter-spacing:normal;word-spacing:normal;text-transform:none;writing-mode:lr-tb;direction:ltr;text-orientation:mixed;dominant-baseline:auto;baseline-shift:baseline;text-anchor:start;white-space:normal;shape-padding:0;shape-margin:0;inline-size:0;clip-rule:nonzero;display:inline;overflow:visible;visibility:visible;opacity:0.07;isolation:auto;mix-blend-mode:normal;color-interpolation:sRGB;color-interpolation-filters:linearRGB;solid-color:#000000;solid-opacity:1;fill:#007367;fill-opacity:1;fill-rule:nonzero;stroke:none;stroke-width:2;stroke-linecap:round;stroke-linejoin:round;stroke-miterlimit:4;stroke-dasharray:none;stroke-dashoffset:0;stroke-opacity:1;marker:none;color-rendering:auto;image-rendering:auto;shape-rendering:auto;text-rendering:auto;enable-background:accumulate;stop-color:#000000;stop-opacity:1"
     d="m 42.927733,29.587891 a 9.4079494,9.4080009 0 0 1 -8.435546,5.277343 9.4079494,9.4080009 0 0 1 -8.414063,-5.236328 C 26.632148,33.784665 30.194634,37 34.499999,37 c 4.319511,0 7.891773,-3.236511 8.427734,-7.412109 z M 21.999999,45.939453 V 46.5 c 0,1.376349 1.123651,2.5 2.5,2.5 h 10 10 c 1.376349,0 2.5,-1.123651 2.5,-2.5 v -0.560547 c -0.63755,0.653048 -1.523815,1.0625 -2.5,1.0625 h -10 -10 c -0.976185,0 -1.86245,-0.409452 -2.5,-1.0625 z" />
</svg>
